%FSLAX25Y25*%
%MOIN*%
G70*
G01*
G75*
G04 Layer_Color=8388736*
%ADD10R,0.05118X0.03347*%
%ADD11R,0.05315X0.03740*%
%ADD12R,0.03347X0.05118*%
%ADD13R,0.01181X0.05118*%
%ADD14C,0.00800*%
%ADD15C,0.01000*%
%ADD16C,0.05906*%
%ADD17R,0.05906X0.05906*%
%ADD18C,0.02756*%
%ADD19C,0.00984*%
%ADD20C,0.02362*%
%ADD21C,0.00787*%
%ADD22C,0.00394*%
%ADD23R,0.05918X0.04147*%
%ADD24R,0.06115X0.04540*%
%ADD25R,0.04147X0.05918*%
%ADD26R,0.01981X0.05918*%
%ADD27C,0.06706*%
%ADD28R,0.06706X0.06706*%
D15*
X145000Y135000D02*
X195000D01*
Y195000D01*
X145000D02*
X195000D01*
X145000Y135000D02*
Y195000D01*
D23*
X190000Y156653D02*
D03*
Y163347D02*
D03*
X182500Y156653D02*
D03*
Y163347D02*
D03*
D24*
X170000Y163150D02*
D03*
Y156850D02*
D03*
D25*
X181653Y180000D02*
D03*
X188347D02*
D03*
X161653D02*
D03*
X168347D02*
D03*
D26*
X161437Y168268D02*
D03*
X159468D02*
D03*
X157500D02*
D03*
X155532D02*
D03*
X153563D02*
D03*
X161437Y151732D02*
D03*
X159468D02*
D03*
X157500D02*
D03*
X155532D02*
D03*
X153563D02*
D03*
D27*
X150000Y190000D02*
D03*
X160000D02*
D03*
X170000D02*
D03*
X180000D02*
D03*
X150000Y140000D02*
D03*
X160000D02*
D03*
X170000D02*
D03*
X180000D02*
D03*
D28*
X190000Y190000D02*
D03*
Y140000D02*
D03*
M02*
