%FSLAX25Y25*%
%MOIN*%
G70*
G01*
G75*
G04 Layer_Physical_Order=1*
G04 Layer_Color=255*
%ADD10R,0.05118X0.03347*%
%ADD11R,0.05315X0.03740*%
%ADD12R,0.03347X0.05118*%
%ADD13R,0.01181X0.05118*%
%ADD14C,0.00800*%
%ADD15C,0.01000*%
%ADD16C,0.05906*%
%ADD17R,0.05906X0.05906*%
%ADD18C,0.02756*%
G36*
X157397Y192736D02*
X157440Y192500D01*
X156897Y191792D01*
X156539Y190927D01*
X156417Y190000D01*
X156539Y189073D01*
X156897Y188208D01*
X157466Y187466D01*
X158208Y186897D01*
X158878Y186619D01*
Y186000D01*
X158878Y186000D01*
X158964Y185571D01*
X159207Y185207D01*
X160532Y183882D01*
Y183159D01*
X159380D01*
Y177420D01*
X158400D01*
X158010Y177342D01*
X157679Y177121D01*
X154811Y174252D01*
X154589Y173922D01*
X154512Y173531D01*
Y171427D01*
X152372D01*
Y165109D01*
X152372Y165109D01*
X152193Y164901D01*
X152137Y164863D01*
X151700Y164209D01*
X151546Y163437D01*
X151700Y162665D01*
X152137Y162011D01*
X152791Y161574D01*
X153563Y161420D01*
X154335Y161574D01*
X154989Y162011D01*
X155426Y162665D01*
X155580Y163437D01*
X155426Y164209D01*
X155159Y164609D01*
X155426Y165109D01*
X162628D01*
Y170980D01*
X185000D01*
X185390Y171058D01*
X185721Y171279D01*
X189067Y174626D01*
X189288Y174956D01*
X189366Y175347D01*
Y176841D01*
X190620D01*
Y183159D01*
X189468D01*
Y183882D01*
X190793Y185207D01*
X190793Y185207D01*
X191036Y185571D01*
X191122Y186000D01*
X191241Y186447D01*
X193000D01*
Y165620D01*
X191646D01*
X191509Y165902D01*
X191457Y166120D01*
X191863Y166728D01*
X192017Y167500D01*
X191863Y168272D01*
X191426Y168926D01*
X190772Y169363D01*
X190000Y169517D01*
X189228Y169363D01*
X188574Y168926D01*
X188137Y168272D01*
X187983Y167500D01*
X188137Y166728D01*
X188543Y166120D01*
X188491Y165902D01*
X188354Y165620D01*
X186841D01*
Y161073D01*
X193000D01*
Y158927D01*
X186841D01*
Y154380D01*
X188354D01*
X188491Y154098D01*
X188543Y153880D01*
X188137Y153272D01*
X187983Y152500D01*
X188137Y151728D01*
X188574Y151074D01*
X189228Y150637D01*
X190000Y150483D01*
X190772Y150637D01*
X191426Y151074D01*
X191863Y151728D01*
X192017Y152500D01*
X191863Y153272D01*
X191457Y153880D01*
X191509Y154098D01*
X191646Y154380D01*
X193000D01*
Y143953D01*
X190500D01*
Y140000D01*
X190000D01*
Y139500D01*
X186047D01*
Y137000D01*
X182692D01*
X182603Y137264D01*
X182560Y137500D01*
X183103Y138208D01*
X183461Y139073D01*
X183583Y140000D01*
X183461Y140927D01*
X183103Y141792D01*
X182534Y142534D01*
X181792Y143103D01*
X180927Y143461D01*
X180000Y143583D01*
X179073Y143461D01*
X178300Y143141D01*
X175221Y146221D01*
X174890Y146442D01*
X174500Y146520D01*
X161422D01*
X160488Y147454D01*
Y148173D01*
X160937D01*
Y151732D01*
Y155291D01*
X159846D01*
Y154891D01*
X152372D01*
Y148573D01*
X152543D01*
Y143985D01*
X151700Y143141D01*
X150927Y143461D01*
X150000Y143583D01*
X149073Y143461D01*
X148208Y143103D01*
X147500Y142560D01*
X147264Y142603D01*
X147000Y142692D01*
Y187308D01*
X147264Y187397D01*
X147500Y187440D01*
X148208Y186897D01*
X149073Y186539D01*
X150000Y186417D01*
X150927Y186539D01*
X151792Y186897D01*
X152534Y187466D01*
X153103Y188208D01*
X153461Y189073D01*
X153583Y190000D01*
X153461Y190927D01*
X153103Y191792D01*
X152560Y192500D01*
X152603Y192736D01*
X152692Y193000D01*
X157308D01*
X157397Y192736D01*
D02*
G37*
%LPC*%
G36*
X163028Y155291D02*
X161937D01*
Y152232D01*
X163028D01*
Y155291D01*
D02*
G37*
G36*
X169500Y156350D02*
X166342D01*
Y153980D01*
X169500D01*
Y156350D01*
D02*
G37*
G36*
X185659Y158927D02*
X179341D01*
Y154380D01*
X180854D01*
X180991Y154098D01*
X181043Y153880D01*
X180637Y153272D01*
X180483Y152500D01*
X180637Y151728D01*
X181074Y151074D01*
X181728Y150637D01*
X182500Y150483D01*
X183272Y150637D01*
X183926Y151074D01*
X184363Y151728D01*
X184517Y152500D01*
X184363Y153272D01*
X183957Y153880D01*
X184009Y154098D01*
X184146Y154380D01*
X185659D01*
Y158927D01*
D02*
G37*
G36*
X189500Y143953D02*
X186047D01*
Y140500D01*
X189500D01*
Y143953D01*
D02*
G37*
G36*
X163028Y151232D02*
X161937D01*
Y148173D01*
X163028D01*
Y151232D01*
D02*
G37*
G36*
X170000Y169517D02*
X169228Y169363D01*
X168574Y168926D01*
X168137Y168272D01*
X167983Y167500D01*
X168137Y166728D01*
X168543Y166120D01*
X168491Y165902D01*
X168354Y165620D01*
X166743D01*
Y160679D01*
X173258D01*
Y165620D01*
X171646D01*
X171509Y165902D01*
X171457Y166120D01*
X171863Y166728D01*
X172017Y167500D01*
X171863Y168272D01*
X171426Y168926D01*
X170772Y169363D01*
X170000Y169517D01*
D02*
G37*
G36*
X182500D02*
X181728Y169363D01*
X181074Y168926D01*
X180637Y168272D01*
X180483Y167500D01*
X180637Y166728D01*
X181043Y166120D01*
X180991Y165902D01*
X180854Y165620D01*
X179341D01*
Y161073D01*
X185659D01*
Y165620D01*
X184146D01*
X184009Y165902D01*
X183957Y166120D01*
X184363Y166728D01*
X184517Y167500D01*
X184363Y168272D01*
X183926Y168926D01*
X183272Y169363D01*
X182500Y169517D01*
D02*
G37*
G36*
X173658Y159721D02*
X170500D01*
Y157350D01*
X173658D01*
Y159721D01*
D02*
G37*
G36*
Y156350D02*
X170500D01*
Y153980D01*
X173658D01*
Y156350D01*
D02*
G37*
G36*
X169500Y159721D02*
X166342D01*
Y157350D01*
X169500D01*
Y159721D01*
D02*
G37*
%LPD*%
D10*
X190000Y156653D02*
D03*
Y163347D02*
D03*
X182500Y156653D02*
D03*
Y163347D02*
D03*
D11*
X170000Y163150D02*
D03*
Y156850D02*
D03*
D12*
X181653Y180000D02*
D03*
X188347D02*
D03*
X161653D02*
D03*
X168347D02*
D03*
D13*
X161437Y168268D02*
D03*
X159468D02*
D03*
X157500D02*
D03*
X155532D02*
D03*
X153563D02*
D03*
X161437Y151732D02*
D03*
X159468D02*
D03*
X157500D02*
D03*
X155532D02*
D03*
X153563D02*
D03*
D14*
X190000Y152500D02*
Y156653D01*
X182500Y152500D02*
Y156653D01*
X170000Y163150D02*
Y167500D01*
X190000Y163347D02*
Y167500D01*
X182500Y163347D02*
Y167500D01*
X153563Y163437D02*
Y168268D01*
X155532Y173531D02*
X158400Y176400D01*
X155532Y168268D02*
Y173531D01*
X174500Y145500D02*
X180000Y140000D01*
X161000Y145500D02*
X174500D01*
X159468Y147031D02*
X161000Y145500D01*
X159468Y147031D02*
Y151732D01*
X166000Y144000D02*
X170000Y140000D01*
X160000Y144000D02*
X166000D01*
X157500Y146500D02*
X160000Y144000D01*
X157500Y146500D02*
Y151732D01*
X155532Y144468D02*
X160000Y140000D01*
X155532Y144468D02*
Y151732D01*
X150000Y140000D02*
X153563Y143563D01*
Y151732D01*
X188347Y175347D02*
Y180000D01*
X185000Y172000D02*
X188347Y175347D01*
X162000Y172000D02*
X185000D01*
X161437Y171437D02*
X162000Y172000D01*
X161437Y168268D02*
Y171437D01*
X181653Y176154D02*
Y180000D01*
X179000Y173500D02*
X181653Y176154D01*
X161000Y173500D02*
X179000D01*
X159468Y171968D02*
X161000Y173500D01*
X159468Y168268D02*
Y171968D01*
X158400Y176400D02*
X161400D01*
X161653Y176654D01*
X157500Y172900D02*
X159600Y175000D01*
X168347Y176347D02*
Y180000D01*
X167000Y175000D02*
X168347Y176347D01*
X159600Y175000D02*
X167000D01*
X157500Y168268D02*
Y172900D01*
X161653Y176654D02*
Y180000D01*
D15*
X188347D02*
Y184346D01*
X190000Y186000D01*
Y190000D01*
X181653Y180000D02*
Y184346D01*
X180000Y186000D02*
X181653Y184346D01*
X180000Y186000D02*
Y190000D01*
X168347Y180000D02*
Y184346D01*
X170000Y186000D01*
Y190000D01*
X161653Y180000D02*
Y184346D01*
X160000Y186000D02*
X161653Y184346D01*
X160000Y186000D02*
Y190000D01*
X145000Y135000D02*
X195000D01*
Y195000D01*
X145000D02*
X195000D01*
X145000Y135000D02*
Y195000D01*
D16*
X150000Y190000D02*
D03*
X160000D02*
D03*
X170000D02*
D03*
X180000D02*
D03*
X150000Y140000D02*
D03*
X160000D02*
D03*
X170000D02*
D03*
X180000D02*
D03*
D17*
X190000Y190000D02*
D03*
Y140000D02*
D03*
D18*
Y152500D02*
D03*
X182500D02*
D03*
X170000Y167500D02*
D03*
X190000D02*
D03*
X182500D02*
D03*
X153563Y163437D02*
D03*
M02*
